<?xml version="1.0" encoding="UTF-8" standalone="no"?>
<!-- Created with Inkscape (http://www.inkscape.org/) -->

<svg
   xmlns:dc="http://purl.org/dc/elements/1.1/"
   xmlns:cc="http://creativecommons.org/ns#"
   xmlns:rdf="http://www.w3.org/1999/02/22-rdf-syntax-ns#"
   xmlns:svg="http://www.w3.org/2000/svg"
   xmlns="http://www.w3.org/2000/svg"
   xmlns:sodipodi="http://sodipodi.sourceforge.net/DTD/sodipodi-0.dtd"
   xmlns:inkscape="http://www.inkscape.org/namespaces/inkscape"
   width="247"
   height="92"
   id="svg2"
   version="1.1"
   inkscape:version="0.48.5 r10040"
   sodipodi:docname="sibtek-new-logo-v1.svg">
  <title
     id="title4264">Sibtek logo (v1)</title>
  <defs
     id="defs4">
    <filter
       color-interpolation-filters="sRGB"
       id="filter3938-7"
       inkscape:collect="always">
      <feGaussianBlur
         id="feGaussianBlur3940-3"
         stdDeviation="1.8000005"
         inkscape:collect="always" />
    </filter>
    <filter
       color-interpolation-filters="sRGB"
       inkscape:collect="always"
       id="filter4012-2-9"
       x="-0.029055903"
       width="1.0581118"
       y="-0.13792627"
       height="1.2758524">
      <feGaussianBlur
         inkscape:collect="always"
         stdDeviation="1.6735065"
         id="feGaussianBlur4014-8-9" />
    </filter>
    <filter
       inkscape:collect="always"
       id="filter3829"
       x="-0.028968842"
       width="1.0579377"
       y="-0.13992239"
       height="1.2798448">
      <feGaussianBlur
         inkscape:collect="always"
         stdDeviation="1.697725"
         id="feGaussianBlur3831" />
    </filter>
  </defs>
  <sodipodi:namedview
     id="base"
     pagecolor="#939393"
     bordercolor="#666666"
     borderopacity="1.0"
     inkscape:pageopacity="1"
     inkscape:pageshadow="2"
     inkscape:zoom="1"
     inkscape:cx="157.43658"
     inkscape:cy="34.623394"
     inkscape:document-units="px"
     inkscape:current-layer="layer5"
     showgrid="false"
     showguides="true"
     inkscape:guide-bbox="true"
     inkscape:window-width="1440"
     inkscape:window-height="834"
     inkscape:window-x="0"
     inkscape:window-y="27"
     inkscape:window-maximized="1">
    <sodipodi:guide
       orientation="1,0"
       position="9.75,-6.75"
       id="guide3049" />
    <sodipodi:guide
       orientation="0,1"
       position="70.25,9.5"
       id="guide3051" />
    <sodipodi:guide
       orientation="0,1"
       position="99.878833,81.670833"
       id="guide4122" />
    <sodipodi:guide
       orientation="1,0"
       position="237.25,-8.25"
       id="guide4266" />
  </sodipodi:namedview>
  <metadata
     id="metadata7">
    <rdf:RDF>
      <cc:Work
         rdf:about="">
        <dc:format>image/svg+xml</dc:format>
        <dc:type
           rdf:resource="http://purl.org/dc/dcmitype/StillImage" />
        <dc:title>Sibtek logo (v1)</dc:title>
        <dc:date>17.02.2015</dc:date>
        <dc:contributor>
          <cc:Agent>
            <dc:title />
          </cc:Agent>
        </dc:contributor>
        <dc:creator>
          <cc:Agent>
            <dc:title>Viacheslav Lotsmanov</dc:title>
          </cc:Agent>
        </dc:creator>
      </cc:Work>
    </rdf:RDF>
  </metadata>
  <g
     inkscape:groupmode="layer"
     id="layer3"
     inkscape:label="logo"
     style="display:inline"
     transform="translate(0,-960.36218)">
    <g
       inkscape:groupmode="layer"
       id="layer5"
       inkscape:label="text"
       style="display:inline">
      <g
         id="g3833"
         transform="translate(0,-0.0732233)">
        <g
           style="font-size:40px;font-style:normal;font-weight:normal;line-height:125%;letter-spacing:0px;word-spacing:0px;opacity:0.5;fill:#000000;fill-opacity:1;stroke:none;filter:url(#filter3829);font-family:Sans"
           id="g3815"
           transform="translate(-1.454288,7.91668)">
          <path
             d="m 119.29429,1013.7255 c -0.85336,0.6133 -1.94669,1.0533 -3.28,1.32 -1.30669,0.2667 -2.65335,0.4 -4.04,0.4 -1.68001,0 -3.28001,-0.2533 -4.8,-0.76 -1.49334,-0.5333 -2.81334,-1.3733 -3.96,-2.52 -1.14667,-1.1733 -2.06667,-2.68 -2.76,-4.52 -0.66667,-1.8667 -1.000003,-4.12 -1.000002,-6.76 -1e-6,-2.74665 0.373331,-5.03998 1.120002,-6.88 0.77333,-1.86665 1.75999,-3.35998 2.96,-4.48 1.22666,-1.14664 2.58666,-1.95997 4.08,-2.44 1.49332,-0.50664 2.98665,-0.75997 4.48,-0.76 1.59998,3e-5 2.94665,0.10669 4.04,0.32 1.11998,0.21336 2.03998,0.46669 2.76,0.76 l -1.08,4.64 c -0.61335,-0.29331 -1.34669,-0.50665 -2.2,-0.64 -0.82669,-0.13331 -1.84002,-0.19998 -3.04,-0.2 -2.21335,2e-5 -4.00001,0.78669 -5.36,2.36 -1.33334,1.57335 -2.00001,4.01335 -2,7.32 -1e-5,1.44 0.15999,2.76 0.48,3.96 0.31999,1.1733 0.79999,2.1867 1.44,3.04 0.66665,0.8267 1.47999,1.48 2.44,1.96 0.98665,0.4533 2.11998,0.68 3.4,0.68 1.19998,0 2.21331,-0.12 3.04,-0.36 0.82665,-0.24 1.54665,-0.5467 2.16,-0.92 l 1.12,4.48"
             style="font-variant:normal;font-weight:bold;font-stretch:normal;fill:#000000;fill-opacity:1;font-family:PT Sans;-inkscape-font-specification:PT Sans Bold"
             id="path3817"
             inkscape:connector-curvature="0" />
          <path
             d="m 138.99804,999.3655 0.32,-3.64 -0.2,0 -1.88,3.76 -10.44,15.4 -4.12,0 0,-28 5.48,0 0,15.24 -0.4,3.76 0.24,0 1.96,-3.88 10.44,-15.12 4.08,0 0,28 -5.48,0 0,-15.52"
             style="font-variant:normal;font-weight:bold;font-stretch:normal;fill:#000000;fill-opacity:1;font-family:PT Sans;-inkscape-font-specification:PT Sans Bold"
             id="path3819"
             inkscape:connector-curvature="0" />
          <path
             d="m 149.31866,986.8855 17.24,0 0,4.88 -11.76,0 0,5.84 c 0.45333,-0.08 0.99999,-0.15998 1.64,-0.24 0.66666,-0.08 1.31999,-0.11998 1.96,-0.12 1.49332,2e-5 2.86666,0.14668 4.12,0.44 1.25332,0.29335 2.31999,0.78668 3.2,1.48 0.90665,0.66668 1.61332,1.56 2.12,2.68 0.50665,1.0933 0.75998,2.44 0.76,4.04 -2e-5,1.5733 -0.26669,2.9467 -0.8,4.12 -0.50668,1.1733 -1.25335,2.1467 -2.24,2.92 -0.96001,0.7733 -2.13335,1.36 -3.52,1.76 -1.36001,0.4 -2.89334,0.6 -4.6,0.6 -0.45334,0 -1.02667,-0.013 -1.72,-0.04 -0.66667,-0.027 -1.38667,-0.067 -2.16,-0.12 -0.74667,-0.053 -1.49334,-0.12 -2.24,-0.2 -0.74667,-0.08 -1.41333,-0.1867 -2,-0.32 l 0,-27.72 m 8.52,23.88 c 0.69332,0 1.33332,-0.08 1.92,-0.24 0.61332,-0.1867 1.14666,-0.4533 1.6,-0.8 0.45332,-0.3733 0.81332,-0.84 1.08,-1.4 0.26665,-0.56 0.39999,-1.24 0.4,-2.04 -1e-5,-0.96 -0.14668,-1.7333 -0.44,-2.32 -0.29335,-0.5867 -0.69335,-1.04 -1.2,-1.36 -0.50668,-0.3467 -1.09334,-0.5733 -1.76,-0.68 -0.64001,-0.1067 -1.33334,-0.16 -2.08,-0.16 -0.37334,0 -0.84001,0.04 -1.4,0.12 -0.56001,0.053 -0.94667,0.1067 -1.16,0.16 l 0,8.52 c 0.29333,0.08 0.73333,0.1333 1.32,0.16 0.61333,0.027 1.18666,0.04 1.72,0.04"
             style="font-variant:normal;font-weight:bold;font-stretch:normal;fill:#000000;fill-opacity:1;font-family:PT Sans;-inkscape-font-specification:PT Sans Bold"
             id="path3821"
             inkscape:connector-curvature="0" />
          <path
             d="m 192.01116,991.7655 -8.16,0 0,23.12 -5.48,0 0,-23.12 -8.2,0 0,-4.88 21.84,0 0,4.88"
             style="font-variant:normal;font-weight:bold;font-stretch:normal;fill:#000000;fill-opacity:1;font-family:PT Sans;-inkscape-font-specification:PT Sans Bold"
             id="path3823"
             inkscape:connector-curvature="0" />
          <path
             d="m 197.97804,998.4855 10.76,0 c -0.08,-1.06665 -0.30668,-2.03998 -0.68,-2.92 -0.34668,-0.90665 -0.82668,-1.67998 -1.44,-2.32 -0.61335,-0.63998 -1.37335,-1.13331 -2.28,-1.48 -0.90668,-0.37331 -1.93334,-0.55998 -3.08,-0.56 -1.44001,2e-5 -2.69334,0.16002 -3.76,0.48 -1.06667,0.29335 -1.93334,0.62669 -2.6,1 l -1.16,-4.64 c 0.93333,-0.47997 2.10666,-0.87997 3.52,-1.2 1.41333,-0.34664 2.81332,-0.51997 4.2,-0.52 1.83999,3e-5 3.53332,0.25336 5.08,0.76 1.57332,0.50669 2.91998,1.34669 4.04,2.52 1.14665,1.14669 2.03998,2.65335 2.68,4.52 0.63998,1.84002 0.95998,4.09335 0.96,6.76 -2e-5,2.7733 -0.37336,5.0933 -1.12,6.96 -0.74669,1.8667 -1.74669,3.36 -3,4.48 -1.25335,1.12 -2.69335,1.92 -4.32,2.4 -1.62668,0.48 -3.32001,0.72 -5.08,0.72 -1.52001,0 -2.90667,-0.1333 -4.16,-0.4 -1.22667,-0.2667 -2.21334,-0.5733 -2.96,-0.92 l 1.44,-4.76 c 0.61333,0.2933 1.43999,0.5733 2.48,0.84 1.03999,0.24 2.23999,0.36 3.6,0.36 1.03999,0 1.99999,-0.1467 2.88,-0.44 0.87999,-0.2933 1.65332,-0.7467 2.32,-1.36 0.69332,-0.64 1.25332,-1.44 1.68,-2.4 0.42665,-0.96 0.69332,-2.12 0.8,-3.48 l -10.8,0 0,-4.4"
             style="font-variant:normal;font-weight:bold;font-stretch:normal;fill:#000000;fill-opacity:1;font-family:PT Sans;-inkscape-font-specification:PT Sans Bold"
             id="path3825"
             inkscape:connector-curvature="0" />
          <path
             d="m 225.06679,1002.9255 -1.44,0 0,11.96 -5.48,0 0,-28 5.48,0 0,12.4 1.28,-0.56 7.72,-11.84 6.24,0 -8.16,11.76 -2.16,1.52 2.24,1.56 9.32,13.16 -6.76,0 -8.28,-11.96"
             style="font-variant:normal;font-weight:bold;font-stretch:normal;fill:#000000;fill-opacity:1;font-family:PT Sans;-inkscape-font-specification:PT Sans Bold"
             id="path3827"
             inkscape:connector-curvature="0" />
        </g>
        <g
           transform="translate(-3.454288,5.91668)"
           id="text3016"
           style="font-size:40px;font-style:normal;font-weight:normal;line-height:125%;letter-spacing:0px;word-spacing:0px;fill:#ffffff;fill-opacity:1;stroke:none;font-family:Sans">
          <path
             inkscape:connector-curvature="0"
             id="path3021"
             style="font-variant:normal;font-weight:bold;font-stretch:normal;fill:#ffffff;font-family:PT Sans;-inkscape-font-specification:PT Sans Bold"
             d="m 119.29429,1013.7255 c -0.85336,0.6133 -1.94669,1.0533 -3.28,1.32 -1.30669,0.2667 -2.65335,0.4 -4.04,0.4 -1.68001,0 -3.28001,-0.2533 -4.8,-0.76 -1.49334,-0.5333 -2.81334,-1.3733 -3.96,-2.52 -1.14667,-1.1733 -2.06667,-2.68 -2.76,-4.52 -0.66667,-1.8667 -1.000003,-4.12 -1.000002,-6.76 -1e-6,-2.74665 0.373331,-5.03998 1.120002,-6.88 0.77333,-1.86665 1.75999,-3.35998 2.96,-4.48 1.22666,-1.14664 2.58666,-1.95997 4.08,-2.44 1.49332,-0.50664 2.98665,-0.75997 4.48,-0.76 1.59998,3e-5 2.94665,0.10669 4.04,0.32 1.11998,0.21336 2.03998,0.46669 2.76,0.76 l -1.08,4.64 c -0.61335,-0.29331 -1.34669,-0.50665 -2.2,-0.64 -0.82669,-0.13331 -1.84002,-0.19998 -3.04,-0.2 -2.21335,2e-5 -4.00001,0.78669 -5.36,2.36 -1.33334,1.57335 -2.00001,4.01335 -2,7.32 -1e-5,1.44 0.15999,2.76 0.48,3.96 0.31999,1.1733 0.79999,2.1867 1.44,3.04 0.66665,0.8267 1.47999,1.48 2.44,1.96 0.98665,0.4533 2.11998,0.68 3.4,0.68 1.19998,0 2.21331,-0.12 3.04,-0.36 0.82665,-0.24 1.54665,-0.5467 2.16,-0.92 l 1.12,4.48" />
          <path
             inkscape:connector-curvature="0"
             id="path3023"
             style="font-variant:normal;font-weight:bold;font-stretch:normal;fill:#ffffff;font-family:PT Sans;-inkscape-font-specification:PT Sans Bold"
             d="m 138.99804,999.3655 0.32,-3.64 -0.2,0 -1.88,3.76 -10.44,15.4 -4.12,0 0,-28 5.48,0 0,15.24 -0.4,3.76 0.24,0 1.96,-3.88 10.44,-15.12 4.08,0 0,28 -5.48,0 0,-15.52" />
          <path
             inkscape:connector-curvature="0"
             id="path3025"
             style="font-variant:normal;font-weight:bold;font-stretch:normal;fill:#ffffff;font-family:PT Sans;-inkscape-font-specification:PT Sans Bold"
             d="m 149.31866,986.8855 17.24,0 0,4.88 -11.76,0 0,5.84 c 0.45333,-0.08 0.99999,-0.15998 1.64,-0.24 0.66666,-0.08 1.31999,-0.11998 1.96,-0.12 1.49332,2e-5 2.86666,0.14668 4.12,0.44 1.25332,0.29335 2.31999,0.78668 3.2,1.48 0.90665,0.66668 1.61332,1.56 2.12,2.68 0.50665,1.0933 0.75998,2.44 0.76,4.04 -2e-5,1.5733 -0.26669,2.9467 -0.8,4.12 -0.50668,1.1733 -1.25335,2.1467 -2.24,2.92 -0.96001,0.7733 -2.13335,1.36 -3.52,1.76 -1.36001,0.4 -2.89334,0.6 -4.6,0.6 -0.45334,0 -1.02667,-0.013 -1.72,-0.04 -0.66667,-0.027 -1.38667,-0.067 -2.16,-0.12 -0.74667,-0.053 -1.49334,-0.12 -2.24,-0.2 -0.74667,-0.08 -1.41333,-0.1867 -2,-0.32 l 0,-27.72 m 8.52,23.88 c 0.69332,0 1.33332,-0.08 1.92,-0.24 0.61332,-0.1867 1.14666,-0.4533 1.6,-0.8 0.45332,-0.3733 0.81332,-0.84 1.08,-1.4 0.26665,-0.56 0.39999,-1.24 0.4,-2.04 -1e-5,-0.96 -0.14668,-1.7333 -0.44,-2.32 -0.29335,-0.5867 -0.69335,-1.04 -1.2,-1.36 -0.50668,-0.3467 -1.09334,-0.5733 -1.76,-0.68 -0.64001,-0.1067 -1.33334,-0.16 -2.08,-0.16 -0.37334,0 -0.84001,0.04 -1.4,0.12 -0.56001,0.053 -0.94667,0.1067 -1.16,0.16 l 0,8.52 c 0.29333,0.08 0.73333,0.1333 1.32,0.16 0.61333,0.027 1.18666,0.04 1.72,0.04" />
          <path
             inkscape:connector-curvature="0"
             id="path3027"
             style="font-variant:normal;font-weight:bold;font-stretch:normal;fill:#ffffff;font-family:PT Sans;-inkscape-font-specification:PT Sans Bold"
             d="m 192.01116,991.7655 -8.16,0 0,23.12 -5.48,0 0,-23.12 -8.2,0 0,-4.88 21.84,0 0,4.88" />
          <path
             inkscape:connector-curvature="0"
             id="path3029"
             style="font-variant:normal;font-weight:bold;font-stretch:normal;fill:#ffffff;font-family:PT Sans;-inkscape-font-specification:PT Sans Bold"
             d="m 197.97804,998.4855 10.76,0 c -0.08,-1.06665 -0.30668,-2.03998 -0.68,-2.92 -0.34668,-0.90665 -0.82668,-1.67998 -1.44,-2.32 -0.61335,-0.63998 -1.37335,-1.13331 -2.28,-1.48 -0.90668,-0.37331 -1.93334,-0.55998 -3.08,-0.56 -1.44001,2e-5 -2.69334,0.16002 -3.76,0.48 -1.06667,0.29335 -1.93334,0.62669 -2.6,1 l -1.16,-4.64 c 0.93333,-0.47997 2.10666,-0.87997 3.52,-1.2 1.41333,-0.34664 2.81332,-0.51997 4.2,-0.52 1.83999,3e-5 3.53332,0.25336 5.08,0.76 1.57332,0.50669 2.91998,1.34669 4.04,2.52 1.14665,1.14669 2.03998,2.65335 2.68,4.52 0.63998,1.84002 0.95998,4.09335 0.96,6.76 -2e-5,2.7733 -0.37336,5.0933 -1.12,6.96 -0.74669,1.8667 -1.74669,3.36 -3,4.48 -1.25335,1.12 -2.69335,1.92 -4.32,2.4 -1.62668,0.48 -3.32001,0.72 -5.08,0.72 -1.52001,0 -2.90667,-0.1333 -4.16,-0.4 -1.22667,-0.2667 -2.21334,-0.5733 -2.96,-0.92 l 1.44,-4.76 c 0.61333,0.2933 1.43999,0.5733 2.48,0.84 1.03999,0.24 2.23999,0.36 3.6,0.36 1.03999,0 1.99999,-0.1467 2.88,-0.44 0.87999,-0.2933 1.65332,-0.7467 2.32,-1.36 0.69332,-0.64 1.25332,-1.44 1.68,-2.4 0.42665,-0.96 0.69332,-2.12 0.8,-3.48 l -10.8,0 0,-4.4" />
          <path
             inkscape:connector-curvature="0"
             id="path3031"
             style="font-variant:normal;font-weight:bold;font-stretch:normal;fill:#ffffff;font-family:PT Sans;-inkscape-font-specification:PT Sans Bold"
             d="m 225.06679,1002.9255 -1.44,0 0,11.96 -5.48,0 0,-28 5.48,0 0,12.4 1.28,-0.56 7.72,-11.84 6.24,0 -8.16,11.76 -2.16,1.52 2.24,1.56 9.32,13.16 -6.76,0 -8.28,-11.96" />
        </g>
      </g>
    </g>
    <g
       inkscape:groupmode="layer"
       id="layer4"
       inkscape:label="icon">
      <g
         style="display:inline"
         transform="translate(5.9319805,-5.6087551)"
         id="layer1-2"
         inkscape:label="Layer 1">
        <path
           style="opacity:0.5;fill:#000000;fill-opacity:1;filter:url(#filter3938-7)"
           d="m 44.227153,978.36216 c 0,0 5.404705,4.11799 5.002261,11.96798 -0.286332,5.58524 -3.115828,8.54266 -4.724357,9.79766 -0.485622,-0.08 -0.981698,-0.1238 -1.482152,-0.15509 -0.128808,-1.08999 -1.178349,-8.97536 -5.434555,-12.89811 -4.565668,-4.20799 -9.201689,-6.17002 -9.201689,-6.17002 -8.583603,3.76755 -15.833655,10.73415 -19.7311401,19.96742 0,0 5.6378671,-3.7853 12.9070681,-0.8682 5.112938,2.0517 6.973769,5.6152 7.657782,7.5653 -0.227688,0.4161 -0.429982,0.8317 -0.617563,1.2711 -1.205592,-0.2454 -8.837999,-1.6731 -13.833413,1.1162 C 9.35313,1012.9807 6,1016.7466 6,1016.7466 c 0.8552013,9.3671 5.192875,18.4898 12.690921,25.1141 0,0 -1.836979,-6.5495 3.211328,-12.5571 3.342656,-3.9778 7.057461,-4.8135 9.201689,-4.9297 0.316608,0.3611 0.638136,0.6947 0.988101,1.0231 -0.84698,1.4697 -4.312042,7.9049 -3.365718,13.3322 1.068759,6.1297 3.550987,10.5108 3.550987,10.5108 9.093167,2.2612 19.098676,1.1568 27.790338,-3.7827 0,0 -6.780418,-0.434 -10.776476,-7.1932 -2.486743,-4.2061 -2.259134,-7.811 -1.729176,-9.9526 0.777507,-0.3136 1.518217,-0.7105 2.223227,-1.1472 1.898962,2.0688 6.216054,6.2504 10.776475,7.0381 6.107689,1.0551 11.054379,0.2171 11.054379,0.2171 5.184249,-7.8347 7.538904,-17.6821 5.835971,-27.5636 0,0 -2.690786,6.251 -10.375059,7.7513 -5.330419,1.0408 -8.811281,-0.8397 -10.467694,-2.1084 -0.08942,-0.6093 -0.209211,-1.2155 -0.370538,-1.7983 1.14757,-0.5569 8.053911,-4.0654 10.344181,-9.3015 2.492159,-5.6976 2.84079,-10.72781 2.84079,-10.72781 -6.32261,-6.94085 -15.23532,-11.58629 -25.196573,-12.30903 z"
           id="path3932"
           inkscape:connector-curvature="0" />
        <path
           transform="translate(0,976.36218)"
           sodipodi:ry="0"
           sodipodi:rx="0"
           sodipodi:cy="0"
           sodipodi:cx="0"
           id="path3810"
           style="fill:#ffffff;fill-opacity:1;stroke:#ffffff;stroke-width:1.5;stroke-miterlimit:4;stroke-opacity:1;stroke-dasharray:none"
           sodipodi:type="arc" />
        <path
           inkscape:connector-curvature="0"
           id="path3766-7"
           d="m 42.227153,976.36218 c 0,0 5.404705,4.11799 5.002261,11.96798 -0.286332,5.58524 -3.115828,8.54266 -4.724357,9.79762 -0.485622,-0.08 -0.981698,-0.1238 -1.482152,-0.15505 -0.128808,-1.08999 -1.178349,-8.97536 -5.434555,-12.89811 -4.565668,-4.20799 -9.201689,-6.17002 -9.201689,-6.17002 -8.583603,3.76755 -15.833655,10.73415 -19.7311401,19.96738 0,0 5.6378671,-3.78526 12.9070681,-0.8682 5.112938,2.05172 6.973769,5.61522 7.657782,7.56532 -0.227688,0.4161 -0.429982,0.8317 -0.617563,1.2711 -1.205592,-0.2454 -8.837999,-1.6731 -13.833413,1.1162 C 7.35313,1010.9807 4,1014.7466 4,1014.7466 c 0.8552013,9.3671 5.192875,18.4898 12.690921,25.1141 0,0 -1.836979,-6.5495 3.211328,-12.5571 3.342656,-3.9778 7.057461,-4.8135 9.201689,-4.9297 0.316608,0.3611 0.638136,0.6947 0.988101,1.0231 -0.84698,1.4697 -4.312042,7.9049 -3.365718,13.3322 1.068759,6.1297 3.550987,10.5108 3.550987,10.5108 9.093167,2.2612 19.098676,1.1568 27.790338,-3.7827 0,0 -6.780418,-0.434 -10.776476,-7.1932 -2.486743,-4.2061 -2.259134,-7.811 -1.729176,-9.9526 0.777507,-0.3136 1.518217,-0.7105 2.223227,-1.1472 1.898962,2.0688 6.216054,6.2504 10.776475,7.0381 6.107689,1.0551 11.054379,0.2171 11.054379,0.2171 5.184249,-7.8347 7.538904,-17.6821 5.835971,-27.5636 0,0 -2.690786,6.251 -10.375059,7.7513 -5.330419,1.0408 -8.811281,-0.8397 -10.467694,-2.1084 -0.08942,-0.6093 -0.209211,-1.2155 -0.370538,-1.7983 1.14757,-0.5569 8.053911,-4.0654 10.344181,-9.30152 2.492159,-5.69756 2.84079,-10.72777 2.84079,-10.72777 -6.32261,-6.94085 -15.23532,-11.58629 -25.196573,-12.30903 z"
           style="fill:#ffffff;fill-opacity:1" />
      </g>
    </g>
  </g>
</svg>
