<?xml version="1.0" encoding="UTF-8" standalone="no"?>
<!-- Created with Inkscape (http://www.inkscape.org/) -->

<svg
   xmlns:dc="http://purl.org/dc/elements/1.1/"
   xmlns:cc="http://creativecommons.org/ns#"
   xmlns:rdf="http://www.w3.org/1999/02/22-rdf-syntax-ns#"
   xmlns:svg="http://www.w3.org/2000/svg"
   xmlns="http://www.w3.org/2000/svg"
   xmlns:sodipodi="http://sodipodi.sourceforge.net/DTD/sodipodi-0.dtd"
   xmlns:inkscape="http://www.inkscape.org/namespaces/inkscape"
   width="80"
   height="80"
   id="svg2997"
   version="1.1"
   inkscape:version="0.48.5 r10040"
   sodipodi:docname="fan.svg">
  <defs
     id="defs2999">
    <filter
       inkscape:collect="always"
       id="filter3938">
      <feGaussianBlur
         inkscape:collect="always"
         stdDeviation="1.8000005"
         id="feGaussianBlur3940" />
    </filter>
  </defs>
  <sodipodi:namedview
     id="base"
     pagecolor="#364764"
     bordercolor="#666666"
     borderopacity="1.0"
     inkscape:pageopacity="1"
     inkscape:pageshadow="2"
     inkscape:zoom="2.8284271"
     inkscape:cx="-21.274955"
     inkscape:cy="48.310201"
     inkscape:document-units="px"
     inkscape:current-layer="layer1"
     showgrid="false"
     inkscape:window-width="1440"
     inkscape:window-height="834"
     inkscape:window-x="0"
     inkscape:window-y="27"
     inkscape:window-maximized="1"
     showguides="true"
     inkscape:guide-bbox="true" />
  <metadata
     id="metadata3002">
    <rdf:RDF>
      <cc:Work
         rdf:about="">
        <dc:format>image/svg+xml</dc:format>
        <dc:type
           rdf:resource="http://purl.org/dc/dcmitype/StillImage" />
      </cc:Work>
    </rdf:RDF>
  </metadata>
  <g
     inkscape:label="Layer 1"
     inkscape:groupmode="layer"
     id="layer1"
     transform="translate(0,-972.36218)">
    <path
       inkscape:connector-curvature="0"
       id="path3932"
       d="m 44.227153,978.36216 c 0,0 5.404705,4.11799 5.002261,11.96798 -0.286332,5.58524 -3.115828,8.54266 -4.724357,9.79766 -0.485622,-0.08 -0.981698,-0.1238 -1.482152,-0.15509 -0.128808,-1.08999 -1.178349,-8.97536 -5.434555,-12.89811 -4.565668,-4.20799 -9.201689,-6.17002 -9.201689,-6.17002 -8.583603,3.76755 -15.833655,10.73415 -19.7311401,19.96742 0,0 5.6378671,-3.7853 12.9070681,-0.8682 5.112938,2.0517 6.973769,5.6152 7.657782,7.5653 -0.227688,0.4161 -0.429982,0.8317 -0.617563,1.2711 -1.205592,-0.2454 -8.837999,-1.6731 -13.833413,1.1162 C 9.35313,1012.9807 6,1016.7466 6,1016.7466 c 0.8552013,9.3671 5.192875,18.4898 12.690921,25.1141 0,0 -1.836979,-6.5495 3.211328,-12.5571 3.342656,-3.9778 7.057461,-4.8135 9.201689,-4.9297 0.316608,0.3611 0.638136,0.6947 0.988101,1.0231 -0.84698,1.4697 -4.312042,7.9049 -3.365718,13.3322 1.068759,6.1297 3.550987,10.5108 3.550987,10.5108 9.093167,2.2612 19.098676,1.1568 27.790338,-3.7827 0,0 -6.780418,-0.434 -10.776476,-7.1932 -2.486743,-4.2061 -2.259134,-7.811 -1.729176,-9.9526 0.777507,-0.3136 1.518217,-0.7105 2.223227,-1.1472 1.898962,2.0688 6.216054,6.2504 10.776475,7.0381 6.107689,1.0551 11.054379,0.2171 11.054379,0.2171 5.184249,-7.8347 7.538904,-17.6821 5.835971,-27.5636 0,0 -2.690786,6.251 -10.375059,7.7513 -5.330419,1.0408 -8.811281,-0.8397 -10.467694,-2.1084 -0.08942,-0.6093 -0.209211,-1.2155 -0.370538,-1.7983 1.14757,-0.5569 8.053911,-4.0654 10.344181,-9.3015 2.492159,-5.6976 2.84079,-10.72781 2.84079,-10.72781 -6.32261,-6.94085 -15.23532,-11.58629 -25.196573,-12.30903 z"
       style="fill:#000000;fill-opacity:1;filter:url(#filter3938);opacity:0.5" />
    <path
       sodipodi:type="arc"
       style="fill:#ffffff;fill-opacity:1;stroke:#ffffff;stroke-width:1.5;stroke-miterlimit:4;stroke-opacity:1;stroke-dasharray:none"
       id="path3810"
       sodipodi:cx="0"
       sodipodi:cy="0"
       sodipodi:rx="0"
       sodipodi:ry="0"
       transform="translate(0,976.36218)" />
    <path
       style="fill:#ffffff;fill-opacity:1"
       d="m 42.227153,976.36218 c 0,0 5.404705,4.11799 5.002261,11.96798 -0.286332,5.58524 -3.115828,8.54266 -4.724357,9.79762 -0.485622,-0.08 -0.981698,-0.1238 -1.482152,-0.15505 -0.128808,-1.08999 -1.178349,-8.97536 -5.434555,-12.89811 -4.565668,-4.20799 -9.201689,-6.17002 -9.201689,-6.17002 -8.583603,3.76755 -15.833655,10.73415 -19.7311401,19.96738 0,0 5.6378671,-3.78526 12.9070681,-0.8682 5.112938,2.05172 6.973769,5.61522 7.657782,7.56532 -0.227688,0.4161 -0.429982,0.8317 -0.617563,1.2711 -1.205592,-0.2454 -8.837999,-1.6731 -13.833413,1.1162 C 7.35313,1010.9807 4,1014.7466 4,1014.7466 c 0.8552013,9.3671 5.192875,18.4898 12.690921,25.1141 0,0 -1.836979,-6.5495 3.211328,-12.5571 3.342656,-3.9778 7.057461,-4.8135 9.201689,-4.9297 0.316608,0.3611 0.638136,0.6947 0.988101,1.0231 -0.84698,1.4697 -4.312042,7.9049 -3.365718,13.3322 1.068759,6.1297 3.550987,10.5108 3.550987,10.5108 9.093167,2.2612 19.098676,1.1568 27.790338,-3.7827 0,0 -6.780418,-0.434 -10.776476,-7.1932 -2.486743,-4.2061 -2.259134,-7.811 -1.729176,-9.9526 0.777507,-0.3136 1.518217,-0.7105 2.223227,-1.1472 1.898962,2.0688 6.216054,6.2504 10.776475,7.0381 6.107689,1.0551 11.054379,0.2171 11.054379,0.2171 5.184249,-7.8347 7.538904,-17.6821 5.835971,-27.5636 0,0 -2.690786,6.251 -10.375059,7.7513 -5.330419,1.0408 -8.811281,-0.8397 -10.467694,-2.1084 -0.08942,-0.6093 -0.209211,-1.2155 -0.370538,-1.7983 1.14757,-0.5569 8.053911,-4.0654 10.344181,-9.30152 2.492159,-5.69756 2.84079,-10.72777 2.84079,-10.72777 -6.32261,-6.94085 -15.23532,-11.58629 -25.196573,-12.30903 z"
       id="path3766-7"
       inkscape:connector-curvature="0" />
  </g>
</svg>
